<svg width="663" height="171" viewBox="0 0 663 171" fill="none" xmlns="http://www.w3.org/2000/svg">
<path d="M3.664 28.928L14.16 29.056V93.184L3.664 93.056V28.928ZM8.656 16.512C6.94933 16.512 5.41333 15.8293 4.048 14.464C2.68267 13.0987 2 11.5627 2 9.856C2 8.06401 2.68267 6.48534 4.048 5.12C5.41333 3.75467 6.94933 3.07201 8.656 3.07201C10.448 3.07201 12.0267 3.75467 13.392 5.12C14.8427 6.48534 15.568 8.06401 15.568 9.856C15.568 11.5627 14.8427 13.0987 13.392 14.464C12.0267 15.8293 10.448 16.512 8.656 16.512Z" fill="#3B5152"/>
<path d="M34.042 0H44.282V93.184H34.042V0Z" fill="#3B5152"/>
<path d="M64.292 0H74.532V93.184H64.292V0Z" fill="#3B5152"/>
<path d="M116.046 94.08C108.793 94.08 103.118 92.2027 99.022 88.448C94.926 84.608 92.878 79.2747 92.878 72.448V29.184H103.374L103.502 71.168C103.502 75.4347 104.483 78.7627 106.446 81.152C108.494 83.456 111.822 84.608 116.43 84.608C120.27 84.608 123.513 83.6693 126.158 81.792C128.889 79.8293 131.747 76.7573 134.734 72.576V29.056H145.23V73.344C145.23 80 147.107 84.9067 150.862 88.064L144.206 94.336C142.499 93.312 140.921 91.8187 139.47 89.856C138.019 87.8933 136.91 85.888 136.142 83.84C134.265 87.2533 131.449 89.8133 127.694 91.52C124.025 93.2267 120.142 94.08 116.046 94.08Z" fill="#3B5152"/>
<path d="M184.48 94.336C175.093 94.336 166.816 90.752 159.648 83.584L165.664 76.544C168.907 79.36 171.979 81.4507 174.88 82.816C177.781 84.096 180.853 84.736 184.096 84.736C188.277 84.736 191.563 83.84 193.952 82.048C196.427 80.1707 197.664 77.6107 197.664 74.368C197.664 72.4053 197.152 70.8267 196.128 69.632C195.189 68.4373 193.781 67.4133 191.904 66.56C190.112 65.6213 187.083 64.2987 182.816 62.592C178.123 60.7147 174.453 59.0933 171.808 57.728C169.248 56.2773 167.2 54.4853 165.664 52.352C164.128 50.1333 163.36 47.4027 163.36 44.16C163.36 38.8693 165.237 34.6027 168.992 31.36C172.747 28.1173 177.611 26.496 183.584 26.496C187.083 26.496 190.581 27.0933 194.08 28.288C197.664 29.3973 200.48 30.848 202.528 32.64L198.048 40.192C194.208 37.376 189.728 35.968 184.608 35.968C181.365 35.968 178.763 36.6507 176.8 38.016C174.923 39.296 173.984 41.088 173.984 43.392C173.984 45.7813 174.923 47.6587 176.8 49.024C178.763 50.304 182.091 51.8827 186.784 53.76C192.075 55.8933 196.213 57.8133 199.2 59.52C202.187 61.2267 204.448 63.232 205.984 65.536C207.52 67.7547 208.288 70.5707 208.288 73.984C208.288 80.0427 206.069 84.9493 201.632 88.704C197.195 92.4587 191.477 94.336 184.48 94.336Z" fill="#3B5152"/>
<path d="M240.093 94.848C233.949 94.848 229.17 93.056 225.757 89.472C222.344 85.8027 220.637 80.5547 220.637 73.728V12.544H231.133V28.16H250.845V37.632H231.133V73.728C231.133 77.9093 231.986 80.8107 233.693 82.432C235.485 84.0533 237.576 84.864 239.965 84.864C241.672 84.864 243.037 84.6933 244.061 84.352C245.17 84.0107 246.621 83.3707 248.413 82.432L253.277 91.008C249.864 93.568 245.469 94.848 240.093 94.848Z" fill="#3B5152"/>
<path d="M293.425 26.88C295.9 26.88 298.844 27.3067 302.257 28.16L302.001 38.272C298.588 37.3333 295.814 36.864 293.681 36.864C289.67 36.864 286.556 37.8027 284.337 39.68C281.777 41.728 279.558 44.4587 277.681 47.872V93.184H267.185V47.872C267.185 41.216 265.393 36.352 261.809 33.28L268.849 26.752C270.129 27.52 271.409 28.672 272.689 30.208C274.054 31.744 275.164 33.4933 276.017 35.456C277.894 33.0667 279.814 31.232 281.777 29.952C285.02 27.904 288.902 26.88 293.425 26.88Z" fill="#3B5152"/>
<path d="M358.062 94.72C354.819 92.5013 352.515 89.7707 351.15 86.528C349.187 89.0027 346.542 90.9227 343.214 92.288C339.971 93.6533 336.302 94.336 332.206 94.336C325.209 94.336 319.577 92.416 315.31 88.576C311.129 84.736 309.038 79.6587 309.038 73.344C309.038 66.688 311.555 61.5253 316.59 57.856C321.625 54.1013 328.665 52.224 337.71 52.224H348.846V49.536C348.846 44.672 347.95 41.2587 346.158 39.296C344.451 37.248 341.507 36.224 337.326 36.224C333.742 36.224 330.201 36.864 326.702 38.144C323.289 39.424 320.131 41.2587 317.23 43.648L312.11 35.84C315.182 33.024 318.979 30.8053 323.502 29.184C328.025 27.5627 332.675 26.752 337.454 26.752C344.537 26.752 349.955 28.5867 353.71 32.256C357.465 35.9253 359.342 41.216 359.342 48.128V73.6C359.342 80.3413 361.177 85.248 364.846 88.32L358.062 94.72ZM332.334 84.864C337.283 84.864 341.251 83.456 344.238 80.64C347.31 77.7387 348.846 74.0267 348.846 69.504V61.696H337.71C331.31 61.696 326.659 62.6347 323.758 64.512C320.942 66.304 319.534 69.2053 319.534 73.216C319.534 76.8853 320.643 79.744 322.862 81.792C325.166 83.84 328.323 84.864 332.334 84.864Z" fill="#3B5152"/>
<path d="M397.218 94.848C391.074 94.848 386.295 93.056 382.882 89.472C379.469 85.8027 377.762 80.5547 377.762 73.728V12.544H388.258V28.16H407.97V37.632H388.258V73.728C388.258 77.9093 389.111 80.8107 390.818 82.432C392.61 84.0533 394.701 84.864 397.09 84.864C398.797 84.864 400.162 84.6933 401.186 84.352C402.295 84.0107 403.746 83.3707 405.538 82.432L410.402 91.008C406.989 93.568 402.594 94.848 397.218 94.848Z" fill="#3B5152"/>
<path d="M423.414 28.928L433.91 29.056V93.184L423.414 93.056V28.928ZM428.406 16.512C426.699 16.512 425.163 15.8293 423.798 14.464C422.433 13.0987 421.75 11.5627 421.75 9.856C421.75 8.06401 422.433 6.48534 423.798 5.12C425.163 3.75467 426.699 3.07201 428.406 3.07201C430.198 3.07201 431.777 3.75467 433.142 5.12C434.593 6.48534 435.318 8.06401 435.318 9.856C435.318 11.5627 434.593 13.0987 433.142 14.464C431.777 15.8293 430.198 16.512 428.406 16.512Z" fill="#3B5152"/>
<path fill-rule="evenodd" clip-rule="evenodd" d="M509.554 51.27C507.829 45.4941 504.529 40.3109 500.024 36.2996C495.518 32.2882 489.984 29.6066 484.04 28.5546C478.096 27.5026 471.975 28.1215 466.363 30.3422C460.751 32.5629 455.868 36.2979 452.26 41.1299C448.651 45.9618 446.46 51.7003 445.93 57.7041C445.401 63.7079 446.554 69.7405 449.26 75.1278C451.967 80.5151 456.121 85.0448 461.258 88.2107C466.395 91.3766 472.312 93.0541 478.349 93.0557H517.878C523.428 93.0557 528.751 90.8545 532.675 86.9363C536.6 83.0181 538.805 77.7039 538.805 72.1628C538.805 66.6217 536.6 61.3075 532.675 57.3893C528.751 53.4712 523.428 51.27 517.878 51.27H509.554ZM478.352 83.0557H517.878C520.781 83.0557 523.562 81.9041 525.61 79.8595C527.657 77.8154 528.805 75.0465 528.805 72.1628C528.805 69.2791 527.657 66.5102 525.61 64.4662C523.562 62.4215 520.781 61.27 517.878 61.27H509.554C505.133 61.27 501.237 58.3673 499.972 54.1314C498.778 50.1351 496.495 46.5468 493.374 43.7683C490.253 40.9898 486.418 39.131 482.297 38.4016C478.176 37.6722 473.933 38.1014 470.043 39.6407C466.153 41.18 462.77 43.7679 460.272 47.1133C457.774 50.4585 456.258 54.4297 455.892 58.5829C455.525 62.7361 456.323 66.9099 458.196 70.6382C460.069 74.3667 462.945 77.5039 466.505 79.6976C470.063 81.891 474.164 83.0541 478.349 83.0557C478.35 83.0557 478.351 83.0557 478.352 83.0557Z" fill="#F1592A"/>
<path d="M549.432 47.7441C549.432 44.7574 549.005 42.0694 548.152 39.6801C547.384 37.2908 545.891 35.1148 543.672 33.1521L550.456 26.7521C553.955 28.8001 556.557 32.2134 558.264 36.9921C563.811 30.3361 570.765 27.0081 579.128 27.0081C585.869 27.0081 591.203 28.8428 595.128 32.5121C599.139 36.1814 601.144 41.5148 601.144 48.5121V93.1841L590.648 93.3121V49.9201C590.648 45.7388 589.752 42.4534 587.96 40.0641C586.168 37.6748 583.011 36.4801 578.488 36.4801C574.563 36.4801 571.235 37.4188 568.504 39.2961C565.859 41.0881 563 44.0321 559.928 48.1281V93.1841H549.432V47.7441Z" fill="#3B5152"/>
<path d="M638.358 94.3361C628.971 94.3361 620.694 90.7521 613.526 83.5841L619.542 76.5441C622.785 79.3601 625.857 81.4508 628.758 82.8161C631.659 84.0961 634.731 84.7361 637.974 84.7361C642.155 84.7361 645.441 83.8401 647.83 82.0481C650.305 80.1708 651.542 77.6108 651.542 74.3681C651.542 72.4054 651.03 70.8268 650.006 69.6321C649.067 68.4374 647.659 67.4134 645.782 66.5601C643.99 65.6214 640.961 64.2988 636.694 62.5921C632.001 60.7148 628.331 59.0934 625.686 57.7281C623.126 56.2774 621.078 54.4854 619.542 52.3521C618.006 50.1334 617.238 47.4028 617.238 44.1601C617.238 38.8694 619.115 34.6028 622.87 31.3601C626.625 28.1174 631.489 26.4961 637.462 26.4961C640.961 26.4961 644.459 27.0934 647.958 28.2881C651.542 29.3974 654.358 30.8481 656.406 32.6401L651.926 40.1921C648.086 37.3761 643.606 35.9681 638.486 35.9681C635.243 35.9681 632.641 36.6508 630.678 38.0161C628.801 39.2961 627.862 41.0881 627.862 43.3921C627.862 45.7814 628.801 47.6588 630.678 49.0241C632.641 50.3041 635.969 51.8828 640.662 53.7601C645.953 55.8934 650.091 57.8134 653.078 59.5201C656.065 61.2268 658.326 63.2321 659.862 65.5361C661.398 67.7548 662.166 70.5708 662.166 73.9841C662.166 80.0428 659.947 84.9494 655.51 88.7041C651.073 92.4588 645.355 94.3361 638.358 94.3361Z" fill="#3B5152"/>
<path d="M525.728 169.448C521.077 169.448 517.408 168.019 514.72 165.16C512.075 162.302 510.752 158.398 510.752 153.448C510.752 150.035 511.392 147.027 512.672 144.424C513.952 141.779 515.765 139.752 518.112 138.344C520.459 136.894 523.168 136.168 526.24 136.168C527.947 136.168 529.525 136.488 530.976 137.128C532.469 137.726 534.005 138.707 535.584 140.072L533.024 142.376C532.043 141.395 531.019 140.691 529.952 140.264C528.928 139.838 527.691 139.624 526.24 139.624C522.699 139.624 519.861 140.904 517.728 143.464C515.637 145.982 514.592 149.374 514.592 153.64C514.592 157.566 515.573 160.616 517.536 162.792C519.541 164.926 522.379 165.992 526.048 165.992C529.163 165.992 532.533 164.99 536.16 162.984L537.824 165.672C536.075 166.867 534.133 167.806 532 168.488C529.909 169.128 527.819 169.448 525.728 169.448Z" fill="#3B5152"/>
<path d="M544.12 122.536H547.96V169H544.12V122.536Z" fill="#3B5152"/>
<path d="M571.622 169.64C568.593 169.64 565.884 168.936 563.494 167.528C561.148 166.12 559.313 164.158 557.99 161.64C556.668 159.123 556.006 156.264 556.006 153.064C556.006 149.864 556.668 147.006 557.99 144.488C559.356 141.928 561.212 139.944 563.558 138.536C565.948 137.086 568.657 136.36 571.686 136.36C574.673 136.36 577.34 137.086 579.686 138.536C582.076 139.944 583.932 141.907 585.254 144.424C586.62 146.942 587.302 149.8 587.302 153C587.302 156.2 586.62 159.059 585.254 161.576C583.932 164.094 582.076 166.078 579.686 167.528C577.34 168.936 574.652 169.64 571.622 169.64ZM571.686 166.184C575.228 166.184 578.065 164.968 580.198 162.536C582.374 160.104 583.462 156.926 583.462 153C583.462 150.398 582.972 148.115 581.99 146.152C581.009 144.147 579.622 142.59 577.83 141.48C576.038 140.371 573.99 139.816 571.686 139.816C569.34 139.816 567.27 140.371 565.478 141.48C563.686 142.59 562.3 144.168 561.318 146.216C560.337 148.222 559.846 150.504 559.846 153.064C559.846 155.624 560.337 157.907 561.318 159.912C562.3 161.875 563.686 163.411 565.478 164.52C567.27 165.63 569.34 166.184 571.686 166.184Z" fill="#3B5152"/>
<path d="M605.61 169.512C602.026 169.512 599.295 168.616 597.418 166.824C595.583 165.032 594.666 162.472 594.666 159.144V137H598.506V158.44C598.506 160.83 599.061 162.707 600.17 164.072C601.279 165.395 603.157 166.056 605.802 166.056C608.021 166.056 609.855 165.523 611.306 164.456C612.799 163.347 614.357 161.683 615.978 159.464V137H619.818V159.592C619.818 162.92 620.65 165.438 622.314 167.144L619.946 169.448C619.007 168.766 618.218 167.891 617.578 166.824C616.981 165.715 616.575 164.606 616.362 163.496C614.997 165.63 613.418 167.166 611.626 168.104C609.877 169.043 607.871 169.512 605.61 169.512Z" fill="#3B5152"/>
<path d="M641.134 169.64C638.275 169.64 635.822 168.915 633.774 167.464C631.726 165.971 630.169 163.987 629.102 161.512C628.035 158.995 627.502 156.243 627.502 153.256C627.502 150.014 628.099 147.134 629.294 144.616C630.531 142.056 632.323 140.072 634.67 138.664C637.017 137.214 639.811 136.488 643.054 136.488C644.035 136.488 645.273 136.552 646.766 136.68C648.302 136.766 649.646 136.894 650.798 137.064V122.472H654.318V159.784C654.318 163.07 655.15 165.608 656.814 167.4L654.638 169.512C652.974 168.275 651.843 166.44 651.246 164.008C650.265 165.928 648.857 167.358 647.022 168.296C645.23 169.192 643.267 169.64 641.134 169.64ZM641.326 166.312C643.246 166.312 644.953 165.843 646.446 164.904C647.982 163.966 649.134 162.686 649.902 161.064C650.499 159.87 650.798 158.504 650.798 156.968V140.456C648.451 140.158 646.745 139.987 645.678 139.944C644.654 139.859 643.587 139.816 642.478 139.816C640.131 139.816 638.105 140.392 636.398 141.544C634.691 142.696 633.39 144.296 632.494 146.344C631.598 148.35 631.15 150.59 631.15 153.064C631.15 156.776 632.046 159.912 633.838 162.472C635.63 165.032 638.126 166.312 641.326 166.312Z" fill="#3B5152"/>
<path fill-rule="evenodd" clip-rule="evenodd" d="M514.356 165.503L514.353 165.5C511.601 162.526 510.252 158.488 510.252 153.448C510.252 149.972 510.904 146.887 512.223 144.205C513.541 141.481 515.417 139.379 517.852 137.917C520.286 136.413 523.087 135.668 526.24 135.668C528.008 135.668 529.653 135.999 531.17 136.667C532.725 137.291 534.305 138.305 535.911 139.694L536.34 140.065L533.006 143.065L532.67 142.73C531.727 141.787 530.758 141.125 529.766 140.728L529.76 140.726C528.812 140.331 527.644 140.124 526.24 140.124C522.837 140.124 520.144 141.346 518.113 143.784C516.117 146.187 515.092 149.454 515.092 153.64C515.092 157.482 516.051 160.397 517.904 162.453C519.792 164.46 522.482 165.492 526.048 165.492C529.055 165.492 532.342 164.524 535.918 162.547L536.335 162.316L538.501 165.815L538.106 166.085C536.314 167.309 534.329 168.268 532.152 168.964L532.146 168.966C530.01 169.62 527.87 169.948 525.728 169.948C520.967 169.948 517.156 168.48 514.356 165.503ZM517.536 162.792C515.573 160.616 514.592 157.566 514.592 153.64C514.592 149.374 515.637 145.982 517.728 143.464C519.861 140.904 522.699 139.624 526.24 139.624C527.691 139.624 528.928 139.838 529.952 140.264C531.019 140.691 532.043 141.395 533.024 142.376L535.584 140.072C535.455 139.961 535.327 139.852 535.199 139.746C533.755 138.549 532.348 137.677 530.976 137.128C529.525 136.488 527.947 136.168 526.24 136.168C523.168 136.168 520.459 136.894 518.112 138.344C515.765 139.752 513.952 141.779 512.672 144.424C511.392 147.027 510.752 150.035 510.752 153.448C510.752 158.398 512.075 162.302 514.72 165.16C517.408 168.019 521.077 169.448 525.728 169.448C527.819 169.448 529.909 169.128 532 168.488C534.133 167.806 536.075 166.867 537.824 165.672L536.16 162.984C532.533 164.99 529.163 165.992 526.048 165.992C522.379 165.992 519.541 164.926 517.536 162.792ZM543.62 122.036H548.46V169.5H543.62V122.036ZM563.241 167.959L563.237 167.957C560.809 166.5 558.911 164.468 557.548 161.873C556.183 159.275 555.506 156.335 555.506 153.064C555.506 149.793 556.183 146.853 557.548 144.256L557.549 144.253C558.954 141.618 560.872 139.566 563.3 138.108C565.774 136.606 568.574 135.86 571.686 135.86C574.756 135.86 577.514 136.606 579.945 138.108C582.413 139.564 584.332 141.594 585.695 144.189C587.104 146.787 587.802 149.728 587.802 153C587.802 156.272 587.104 159.214 585.696 161.812C584.332 164.407 582.413 166.458 579.946 167.956L579.944 167.957C577.511 169.416 574.732 170.14 571.622 170.14C568.512 170.14 565.714 169.416 563.241 167.959ZM585.254 161.576C586.62 159.059 587.302 156.2 587.302 153C587.302 149.8 586.62 146.942 585.254 144.424C583.932 141.907 582.076 139.944 579.686 138.536C577.34 137.086 574.673 136.36 571.686 136.36C568.657 136.36 565.948 137.086 563.558 138.536C561.212 139.944 559.356 141.928 557.99 144.488C556.668 147.006 556.006 149.864 556.006 153.064C556.006 156.264 556.668 159.123 557.99 161.64C559.313 164.158 561.148 166.12 563.494 167.528C565.884 168.936 568.593 169.64 571.622 169.64C574.652 169.64 577.34 168.936 579.686 167.528C582.076 166.078 583.932 164.094 585.254 161.576ZM579.823 162.206L579.826 162.203C581.904 159.88 582.962 156.829 582.962 153C582.962 150.461 582.484 148.257 581.543 146.376L581.541 146.372C580.599 144.446 579.274 142.962 577.567 141.905C575.862 140.849 573.906 140.316 571.686 140.316C569.422 140.316 567.446 140.85 565.742 141.905C564.037 142.96 562.713 144.463 561.769 146.432L561.768 146.436C560.824 148.363 560.346 150.569 560.346 153.064C560.346 155.558 560.824 157.764 561.767 159.691C562.708 161.573 564.032 163.037 565.742 164.095C567.446 165.15 569.422 165.684 571.686 165.684C575.099 165.684 577.794 164.519 579.823 162.206ZM561.318 159.912C560.337 157.907 559.846 155.624 559.846 153.064C559.846 150.504 560.337 148.222 561.318 146.216C562.3 144.168 563.686 142.59 565.478 141.48C567.27 140.371 569.34 139.816 571.686 139.816C573.99 139.816 576.038 140.371 577.83 141.48C579.622 142.59 581.009 144.147 581.99 146.152C582.972 148.115 583.462 150.398 583.462 153C583.462 156.926 582.374 160.104 580.198 162.536C578.065 164.968 575.228 166.184 571.686 166.184C569.34 166.184 567.27 165.63 565.478 164.52C563.686 163.411 562.3 161.875 561.318 159.912ZM597.073 167.186L597.069 167.182C595.111 165.27 594.166 162.565 594.166 159.144V136.5H599.006V158.44C599.006 160.754 599.542 162.505 600.556 163.754C601.529 164.912 603.227 165.556 605.802 165.556C607.939 165.556 609.662 165.044 611.009 164.054C612.418 163.007 613.909 161.429 615.478 159.3V136.5H620.318V159.592C620.318 162.842 621.13 165.214 622.672 166.795L623.021 167.153L619.993 170.1L619.652 169.853C618.655 169.128 617.821 168.201 617.149 167.081L617.143 167.071L617.138 167.061C616.716 166.278 616.384 165.49 616.145 164.699C614.892 166.415 613.466 167.704 611.86 168.546C610.029 169.528 607.941 170.012 605.61 170.012C601.947 170.012 599.074 169.096 597.073 167.186ZM611.626 168.104C613.251 167.253 614.701 165.91 615.976 164.075C616.106 163.887 616.235 163.694 616.362 163.496C616.405 163.721 616.457 163.947 616.516 164.172C616.748 165.056 617.102 165.94 617.578 166.824C618.218 167.891 619.007 168.766 619.946 169.448L622.314 167.144C622.31 167.141 622.307 167.137 622.303 167.133C620.646 165.427 619.818 162.913 619.818 159.592V137H615.978V159.464C614.357 161.683 612.799 163.347 611.306 164.456C609.855 165.523 608.021 166.056 605.802 166.056C603.157 166.056 601.279 165.395 600.17 164.072C599.061 162.707 598.506 160.83 598.506 158.44V137H594.666V159.144C594.666 162.472 595.583 165.032 597.418 166.824C599.295 168.616 602.026 169.512 605.61 169.512C607.871 169.512 609.877 169.043 611.626 168.104ZM633.485 167.872L633.479 167.868C631.354 166.319 629.743 164.262 628.643 161.71L628.642 161.707C627.546 159.123 627.002 156.304 627.002 153.256C627.002 149.951 627.611 146.996 628.842 144.402L628.844 144.399C630.121 141.756 631.978 139.697 634.41 138.237C636.848 136.731 639.736 135.988 643.054 135.988C644.053 135.988 645.304 136.053 646.801 136.181C648.099 136.254 649.265 136.356 650.298 136.49V121.972H654.818V159.784C654.818 162.987 655.628 165.388 657.18 167.06L657.513 167.418L654.681 170.167L654.34 169.913C652.842 168.8 651.765 167.243 651.093 165.27C650.117 166.77 648.835 167.93 647.25 168.741L647.246 168.743C645.38 169.676 643.34 170.14 641.134 170.14C638.187 170.14 635.629 169.391 633.485 167.872ZM650.897 164.641C651.019 164.436 651.135 164.225 651.246 164.008C651.305 164.247 651.368 164.479 651.437 164.706C652.07 166.794 653.137 168.396 654.638 169.512L656.814 167.4C655.15 165.608 654.318 163.07 654.318 159.784V122.472H650.798V137.064C650.635 137.04 650.468 137.017 650.298 136.994C649.262 136.858 648.085 136.753 646.766 136.68C645.273 136.552 644.035 136.488 643.054 136.488C639.811 136.488 637.017 137.214 634.67 138.664C632.323 140.072 630.531 142.056 629.294 144.616C628.099 147.134 627.502 150.014 627.502 153.256C627.502 156.243 628.035 158.995 629.102 161.512C630.169 163.987 631.726 165.971 633.774 167.464C635.822 168.915 638.275 169.64 641.134 169.64C643.267 169.64 645.23 169.192 647.022 168.296C648.649 167.464 649.941 166.245 650.897 164.641ZM646.18 164.481L646.185 164.477C647.638 163.589 648.724 162.383 649.45 160.85L649.455 160.841C650.012 159.725 650.298 158.438 650.298 156.968V140.897C648.179 140.633 646.635 140.483 645.658 140.444L645.647 140.443L645.636 140.442C644.627 140.358 643.575 140.316 642.478 140.316C640.217 140.316 638.291 140.87 636.678 141.959C635.056 143.053 633.813 144.576 632.952 146.545L632.95 146.548C632.087 148.482 631.65 150.651 631.65 153.064C631.65 156.693 632.525 159.724 634.248 162.185C635.943 164.608 638.284 165.812 641.326 165.812C643.16 165.812 644.773 165.365 646.18 164.481ZM650.798 140.456V156.968C650.798 158.504 650.499 159.87 649.902 161.064C649.134 162.686 647.982 163.966 646.446 164.904C644.953 165.843 643.246 166.312 641.326 166.312C638.126 166.312 635.63 165.032 633.838 162.472C632.046 159.912 631.15 156.776 631.15 153.064C631.15 150.59 631.598 148.35 632.494 146.344C633.39 144.296 634.691 142.696 636.398 141.544C638.105 140.392 640.131 139.816 642.478 139.816C643.587 139.816 644.654 139.859 645.678 139.944C646.745 139.987 648.451 140.158 650.798 140.456ZM547.96 122.536V169H544.12V122.536H547.96Z" fill="#3B5152"/>
<path fill-rule="evenodd" clip-rule="evenodd" d="M1.74846e-07 154C7.8281e-08 152.895 0.89543 152 2 152L472 152C473.105 152 474 152.895 474 154C474 155.105 473.105 156 472 156L2 156C0.895431 156 2.7141e-07 155.105 1.74846e-07 154Z" fill="#F1592A"/>
</svg>
